<svg xmlns="http://www.w3.org/2000/svg" xmlns:svg="http://www.w3.org/2000/svg" xmlns:xlink="http://www.w3.org/1999/xlink" id="svg891" fill="#fff" version="1.1" viewBox="0 0 524 524"><metadata id="metadata895"/><defs id="defs834"><linearGradient id="linearGradient19425"><stop style="stop-color:#424242;stop-opacity:1" id="stop19421" offset=".472"/><stop style="stop-color:#353637;stop-opacity:1" id="stop19423" offset="1"/></linearGradient><linearGradient id="linearGradient2250"><stop style="stop-color:#878a8c;stop-opacity:1" id="stop2246" offset=".472"/><stop style="stop-color:#727577;stop-opacity:1" id="stop2248" offset="1"/></linearGradient><radialGradient id="radialGradient2279" cx="29.72" cy="87.35" r="468.19" gradientUnits="userSpaceOnUse"><stop style="stop-color:#000;stop-opacity:.62903225" id="stop4877" offset="0" stop-color="#fff" stop-opacity=".1"/><stop id="stop4879" offset=".788" stop-color="#fff" stop-opacity=".1" style="stop-color:#000;stop-opacity:0"/><stop style="stop-color:#000;stop-opacity:.43951616" id="stop4888" offset=".857" stop-color="#fff" stop-opacity=".1"/><stop style="stop-color:#000;stop-opacity:0" id="stop4881" offset="1" stop-color="#fff" stop-opacity="0"/></radialGradient><radialGradient id="radialGradient3236" cx="29.72" cy="87.35" r="468.19" gradientUnits="userSpaceOnUse"><stop id="stop3232" offset="0" stop-color="#fff" stop-opacity=".1" style="stop-color:#fff;stop-opacity:1"/><stop id="stop3234" offset="1" stop-color="#fff" stop-opacity="0" style="stop-opacity:1"/></radialGradient><radialGradient id="radialGradient2279-3" cx="29.72" cy="87.35" r="468.19" gradientUnits="userSpaceOnUse"><stop id="stop2275" offset="0" stop-color="#fff" stop-opacity=".1" style="stop-color:#000;stop-opacity:.62903225"/><stop style="stop-color:#000;stop-opacity:.98387098" id="stop2281" offset=".824" stop-color="#fff" stop-opacity=".1"/><stop id="stop2277" offset="1" stop-color="#fff" stop-opacity="0" style="stop-color:#000;stop-opacity:0"/></radialGradient><radialGradient id="radialGradient1017" cx="29.72" cy="87.35" r="468.19" gradientUnits="userSpaceOnUse"><stop id="stop1013" offset="0" stop-color="#fff" stop-opacity=".1" style="stop-color:#bababa;stop-opacity:1"/><stop id="stop1015" offset=".488" stop-color="#fff" stop-opacity="0" style="stop-color:#f3f3f3;stop-opacity:1"/><stop id="stop23394" offset=".823" stop-color="#fff" stop-opacity="0" style="stop-color:#d6d6d6;stop-opacity:1"/><stop id="stop23396" offset="1" stop-color="#fff" stop-opacity="0" style="stop-color:#f3f3f3;stop-opacity:1"/></radialGradient><path id="a" d="M337.7 84.8c-23-11.5-49-18.1-76.5-18.1s-53.5 6.5-76.5 18.1H26.8l.7 1.3.8 1.4 53.9 93.3h17.7a170.61 170.61 0 0 0-9.8 57c0 78 52.3 143.9 123.7 164.4V458h95.9v-56.3c70.7-21 122.3-86.4 122.3-164 0-20-3.4-39.2-9.8-57H441l55.4-95.9zm-231 79.6c-.1.1-.1.2-.2.4 0-.1.1-.2.2-.4zm-2.4 5.3c0 .1-.1.2-.1.3 0-.2 0-.2.1-.3zm311.4-5.3c.1.1.1.2.2.4 0-.1-.1-.2-.2-.4zm2.4 5.3c0 .1.1.2.1.3 0-.2 0-.2-.1-.3z"/><radialGradient id="radialGradient2252" cx="260.904" cy="211.018" r="2.113" fx="260.904" fy="211.018" gradientUnits="userSpaceOnUse" xlink:href="#linearGradient19425"/><radialGradient id="d-3" cx="29.72" cy="87.35" r="468.19" gradientUnits="userSpaceOnUse"><stop id="stop846-8" offset="0" stop-color="#fff" stop-opacity=".1"/><stop id="stop848-0" offset="1" stop-color="#fff" stop-opacity="0"/></radialGradient><radialGradient id="radialGradient12472" cx="29.72" cy="87.35" r="468.19" gradientUnits="userSpaceOnUse"><stop id="stop12468" offset="0" stop-color="#fff" stop-opacity=".1"/><stop id="stop12470" offset="1" stop-color="#fff" stop-opacity="0"/></radialGradient><radialGradient id="radialGradient2279-3-4" cx="29.72" cy="87.35" r="468.19" gradientUnits="userSpaceOnUse"><stop id="stop2275-8" offset="0" stop-color="#fff" stop-opacity=".1" style="stop-color:#000;stop-opacity:.62903225"/><stop style="stop-color:#000;stop-opacity:.98387098" id="stop2281-3" offset=".824" stop-color="#fff" stop-opacity=".1"/><stop id="stop2277-9" offset="1" stop-color="#fff" stop-opacity="0" style="stop-color:#000;stop-opacity:0"/></radialGradient><radialGradient id="radialGradient1017-2" cx="29.72" cy="87.35" r="468.19" gradientUnits="userSpaceOnUse"><stop id="stop1013-2" offset="0" stop-color="#fff" stop-opacity=".1" style="stop-color:#bababa;stop-opacity:1"/><stop id="stop1015-7" offset="1" stop-color="#fff" stop-opacity="0" style="stop-color:#f3f3f3;stop-opacity:1"/></radialGradient><radialGradient id="radialGradient12645" cx="29.72" cy="87.35" r="468.19" gradientUnits="userSpaceOnUse"><stop id="stop12641" offset="0" stop-color="#fff" stop-opacity=".1" style="stop-color:#bababa;stop-opacity:1"/><stop id="stop12643" offset="1" stop-color="#fff" stop-opacity="0" style="stop-color:#f3f3f3;stop-opacity:1"/></radialGradient><radialGradient id="radialGradient12653" cx="29.72" cy="87.35" r="468.19" gradientUnits="userSpaceOnUse"><stop id="stop12649" offset="0" stop-color="#fff" stop-opacity=".1" style="stop-color:#bababa;stop-opacity:1"/><stop id="stop12651" offset="1" stop-color="#fff" stop-opacity="0" style="stop-color:#f3f3f3;stop-opacity:1"/></radialGradient><radialGradient id="radialGradient12661" cx="29.72" cy="87.35" r="468.19" gradientUnits="userSpaceOnUse"><stop id="stop12657" offset="0" stop-color="#fff" stop-opacity=".1" style="stop-color:#bababa;stop-opacity:1"/><stop id="stop12659" offset="1" stop-color="#fff" stop-opacity="0" style="stop-color:#f3f3f3;stop-opacity:1"/></radialGradient><radialGradient id="radialGradient12669" cx="29.72" cy="87.35" r="468.19" gradientUnits="userSpaceOnUse"><stop id="stop12665" offset="0" stop-color="#fff" stop-opacity=".1" style="stop-color:#bababa;stop-opacity:1"/><stop id="stop12667" offset="1" stop-color="#fff" stop-opacity="0" style="stop-color:#f3f3f3;stop-opacity:1"/></radialGradient><radialGradient id="radialGradient12677" cx="29.72" cy="87.35" r="468.19" gradientUnits="userSpaceOnUse"><stop id="stop12673" offset="0" stop-color="#fff" stop-opacity=".1" style="stop-color:#bababa;stop-opacity:1"/><stop id="stop12675" offset="1" stop-color="#fff" stop-opacity="0" style="stop-color:#f3f3f3;stop-opacity:1"/></radialGradient><radialGradient id="radialGradient12685" cx="29.72" cy="87.35" r="468.19" gradientUnits="userSpaceOnUse"><stop id="stop12681" offset="0" stop-color="#fff" stop-opacity=".1" style="stop-color:#bababa;stop-opacity:1"/><stop id="stop12683" offset="1" stop-color="#fff" stop-opacity="0" style="stop-color:#f3f3f3;stop-opacity:1"/></radialGradient><radialGradient id="radialGradient12693" cx="29.72" cy="87.35" r="468.19" gradientUnits="userSpaceOnUse"><stop id="stop12689" offset="0" stop-color="#fff" stop-opacity=".1" style="stop-color:#bababa;stop-opacity:1"/><stop id="stop12691" offset="1" stop-color="#fff" stop-opacity="0" style="stop-color:#f3f3f3;stop-opacity:1"/></radialGradient><radialGradient id="radialGradient12701" cx="29.72" cy="87.35" r="468.19" gradientUnits="userSpaceOnUse"><stop id="stop12697" offset="0" stop-color="#fff" stop-opacity=".1" style="stop-color:#bababa;stop-opacity:1"/><stop id="stop12699" offset="1" stop-color="#fff" stop-opacity="0" style="stop-color:#f3f3f3;stop-opacity:1"/></radialGradient><radialGradient id="radialGradient12709" cx="29.72" cy="87.35" r="468.19" gradientUnits="userSpaceOnUse"><stop id="stop12705" offset="0" stop-color="#fff" stop-opacity=".1" style="stop-color:#bababa;stop-opacity:1"/><stop id="stop12707" offset="1" stop-color="#fff" stop-opacity="0" style="stop-color:#f3f3f3;stop-opacity:1"/></radialGradient><radialGradient id="radialGradient12717" cx="29.72" cy="87.35" r="468.19" gradientUnits="userSpaceOnUse"><stop id="stop12713" offset="0" stop-color="#fff" stop-opacity=".1" style="stop-color:#bababa;stop-opacity:1"/><stop id="stop12715" offset="1" stop-color="#fff" stop-opacity="0" style="stop-color:#f3f3f3;stop-opacity:1"/></radialGradient><radialGradient id="radialGradient12725" cx="29.72" cy="87.35" r="468.19" gradientUnits="userSpaceOnUse"><stop id="stop12721" offset="0" stop-color="#fff" stop-opacity=".1" style="stop-color:#bababa;stop-opacity:1"/><stop id="stop12723" offset="1" stop-color="#fff" stop-opacity="0" style="stop-color:#f3f3f3;stop-opacity:1"/></radialGradient><radialGradient id="radialGradient12733" cx="29.72" cy="87.35" r="468.19" gradientUnits="userSpaceOnUse"><stop id="stop12729" offset="0" stop-color="#fff" stop-opacity=".1" style="stop-color:#bababa;stop-opacity:1"/><stop id="stop12731" offset="1" stop-color="#fff" stop-opacity="0" style="stop-color:#f3f3f3;stop-opacity:1"/></radialGradient><radialGradient id="radialGradient12741" cx="29.72" cy="87.35" r="468.19" gradientUnits="userSpaceOnUse"><stop id="stop12737" offset="0" stop-color="#fff" stop-opacity=".1" style="stop-color:#bababa;stop-opacity:1"/><stop id="stop12739" offset="1" stop-color="#fff" stop-opacity="0" style="stop-color:#f3f3f3;stop-opacity:1"/></radialGradient><radialGradient id="radialGradient12749" cx="29.72" cy="87.35" r="468.19" gradientUnits="userSpaceOnUse"><stop id="stop12745" offset="0" stop-color="#fff" stop-opacity=".1" style="stop-color:#bababa;stop-opacity:1"/><stop id="stop12747" offset="1" stop-color="#fff" stop-opacity="0" style="stop-color:#f3f3f3;stop-opacity:1"/></radialGradient><radialGradient id="radialGradient12757" cx="29.72" cy="87.35" r="468.19" gradientUnits="userSpaceOnUse"><stop id="stop12753" offset="0" stop-color="#fff" stop-opacity=".1" style="stop-color:#bababa;stop-opacity:1"/><stop id="stop12755" offset="1" stop-color="#fff" stop-opacity="0" style="stop-color:#f3f3f3;stop-opacity:1"/></radialGradient><radialGradient id="radialGradient12765" cx="29.72" cy="87.35" r="468.19" gradientUnits="userSpaceOnUse"><stop id="stop12761" offset="0" stop-color="#fff" stop-opacity=".1" style="stop-color:#bababa;stop-opacity:1"/><stop id="stop12763" offset="1" stop-color="#fff" stop-opacity="0" style="stop-color:#f3f3f3;stop-opacity:1"/></radialGradient><radialGradient id="radialGradient12773" cx="29.72" cy="87.35" r="468.19" gradientUnits="userSpaceOnUse"><stop id="stop12769" offset="0" stop-color="#fff" stop-opacity=".1" style="stop-color:#bababa;stop-opacity:1"/><stop id="stop12771" offset="1" stop-color="#fff" stop-opacity="0" style="stop-color:#f3f3f3;stop-opacity:1"/></radialGradient><radialGradient id="radialGradient12781" cx="29.72" cy="87.35" r="468.19" gradientUnits="userSpaceOnUse"><stop id="stop12777" offset="0" stop-color="#fff" stop-opacity=".1" style="stop-color:#bababa;stop-opacity:1"/><stop id="stop12779" offset="1" stop-color="#fff" stop-opacity="0" style="stop-color:#f3f3f3;stop-opacity:1"/></radialGradient><radialGradient id="radialGradient12789" cx="29.72" cy="87.35" r="468.19" gradientUnits="userSpaceOnUse"><stop id="stop12785" offset="0" stop-color="#fff" stop-opacity=".1" style="stop-color:#bababa;stop-opacity:1"/><stop id="stop12787" offset="1" stop-color="#fff" stop-opacity="0" style="stop-color:#f3f3f3;stop-opacity:1"/></radialGradient><radialGradient id="radialGradient12796" cx="29.72" cy="87.35" r="468.19" gradientUnits="userSpaceOnUse"><stop id="stop12792" offset="0" stop-color="#fff" stop-opacity=".1"/><stop id="stop12794" offset="1" stop-color="#fff" stop-opacity="0"/></radialGradient><radialGradient id="radialGradient3236-7" cx="29.72" cy="87.35" r="468.19" gradientUnits="userSpaceOnUse"><stop id="stop3232-9" offset="0" stop-color="#fff" stop-opacity=".1" style="stop-color:#fff;stop-opacity:1"/><stop id="stop3234-0" offset="1" stop-color="#fff" stop-opacity="0" style="stop-opacity:1"/></radialGradient><radialGradient id="d-36" cx="29.72" cy="87.35" r="468.19" gradientUnits="userSpaceOnUse"><stop id="stop846-5" offset="0" stop-color="#fff" stop-opacity=".1"/><stop id="stop848-9" offset="1" stop-color="#fff" stop-opacity="0"/></radialGradient><radialGradient id="radialGradient13951" cx="29.72" cy="87.35" r="468.19" gradientUnits="userSpaceOnUse"><stop id="stop13947" offset="0" stop-color="#fff" stop-opacity=".1"/><stop id="stop13949" offset="1" stop-color="#fff" stop-opacity="0"/></radialGradient><radialGradient id="radialGradient2279-3-49" cx="29.72" cy="87.35" r="468.19" gradientUnits="userSpaceOnUse"><stop id="stop2275-1" offset="0" stop-color="#fff" stop-opacity=".1" style="stop-color:#000;stop-opacity:.62903225"/><stop style="stop-color:#000;stop-opacity:.98387098" id="stop2281-7" offset=".824" stop-color="#fff" stop-opacity=".1"/><stop id="stop2277-5" offset="1" stop-color="#fff" stop-opacity="0" style="stop-color:#000;stop-opacity:0"/></radialGradient><radialGradient id="radialGradient1017-1" cx="29.72" cy="87.35" r="468.19" gradientUnits="userSpaceOnUse"><stop id="stop1013-8" offset="0" stop-color="#fff" stop-opacity=".1" style="stop-color:#bababa;stop-opacity:1"/><stop id="stop1015-8" offset="1" stop-color="#fff" stop-opacity="0" style="stop-color:#f3f3f3;stop-opacity:1"/></radialGradient><radialGradient id="radialGradient14124" cx="29.72" cy="87.35" r="468.19" gradientUnits="userSpaceOnUse"><stop id="stop14120" offset="0" stop-color="#fff" stop-opacity=".1" style="stop-color:#bababa;stop-opacity:1"/><stop id="stop14122" offset="1" stop-color="#fff" stop-opacity="0" style="stop-color:#f3f3f3;stop-opacity:1"/></radialGradient><radialGradient id="radialGradient14132" cx="29.72" cy="87.35" r="468.19" gradientUnits="userSpaceOnUse"><stop id="stop14128" offset="0" stop-color="#fff" stop-opacity=".1" style="stop-color:#bababa;stop-opacity:1"/><stop id="stop14130" offset="1" stop-color="#fff" stop-opacity="0" style="stop-color:#f3f3f3;stop-opacity:1"/></radialGradient><radialGradient id="radialGradient14140" cx="29.72" cy="87.35" r="468.19" gradientUnits="userSpaceOnUse"><stop id="stop14136" offset="0" stop-color="#fff" stop-opacity=".1" style="stop-color:#bababa;stop-opacity:1"/><stop id="stop14138" offset="1" stop-color="#fff" stop-opacity="0" style="stop-color:#f3f3f3;stop-opacity:1"/></radialGradient><radialGradient id="radialGradient14148" cx="29.72" cy="87.35" r="468.19" gradientUnits="userSpaceOnUse"><stop id="stop14144" offset="0" stop-color="#fff" stop-opacity=".1" style="stop-color:#bababa;stop-opacity:1"/><stop id="stop14146" offset="1" stop-color="#fff" stop-opacity="0" style="stop-color:#f3f3f3;stop-opacity:1"/></radialGradient><radialGradient id="radialGradient14156" cx="29.72" cy="87.35" r="468.19" gradientUnits="userSpaceOnUse"><stop id="stop14152" offset="0" stop-color="#fff" stop-opacity=".1" style="stop-color:#bababa;stop-opacity:1"/><stop id="stop14154" offset="1" stop-color="#fff" stop-opacity="0" style="stop-color:#f3f3f3;stop-opacity:1"/></radialGradient><radialGradient id="radialGradient14164" cx="29.72" cy="87.35" r="468.19" gradientUnits="userSpaceOnUse"><stop id="stop14160" offset="0" stop-color="#fff" stop-opacity=".1" style="stop-color:#bababa;stop-opacity:1"/><stop id="stop14162" offset="1" stop-color="#fff" stop-opacity="0" style="stop-color:#f3f3f3;stop-opacity:1"/></radialGradient><radialGradient id="radialGradient14172" cx="29.72" cy="87.35" r="468.19" gradientUnits="userSpaceOnUse"><stop id="stop14168" offset="0" stop-color="#fff" stop-opacity=".1" style="stop-color:#bababa;stop-opacity:1"/><stop id="stop14170" offset="1" stop-color="#fff" stop-opacity="0" style="stop-color:#f3f3f3;stop-opacity:1"/></radialGradient><radialGradient id="radialGradient14180" cx="29.72" cy="87.35" r="468.19" gradientUnits="userSpaceOnUse"><stop id="stop14176" offset="0" stop-color="#fff" stop-opacity=".1" style="stop-color:#bababa;stop-opacity:1"/><stop id="stop14178" offset="1" stop-color="#fff" stop-opacity="0" style="stop-color:#f3f3f3;stop-opacity:1"/></radialGradient><radialGradient id="radialGradient14188" cx="29.72" cy="87.35" r="468.19" gradientUnits="userSpaceOnUse"><stop id="stop14184" offset="0" stop-color="#fff" stop-opacity=".1" style="stop-color:#bababa;stop-opacity:1"/><stop id="stop14186" offset="1" stop-color="#fff" stop-opacity="0" style="stop-color:#f3f3f3;stop-opacity:1"/></radialGradient><radialGradient id="radialGradient14196" cx="29.72" cy="87.35" r="468.19" gradientUnits="userSpaceOnUse"><stop id="stop14192" offset="0" stop-color="#fff" stop-opacity=".1" style="stop-color:#bababa;stop-opacity:1"/><stop id="stop14194" offset="1" stop-color="#fff" stop-opacity="0" style="stop-color:#f3f3f3;stop-opacity:1"/></radialGradient><radialGradient id="radialGradient14204" cx="29.72" cy="87.35" r="468.19" gradientUnits="userSpaceOnUse"><stop id="stop14200" offset="0" stop-color="#fff" stop-opacity=".1" style="stop-color:#bababa;stop-opacity:1"/><stop id="stop14202" offset="1" stop-color="#fff" stop-opacity="0" style="stop-color:#f3f3f3;stop-opacity:1"/></radialGradient><radialGradient id="radialGradient14212" cx="29.72" cy="87.35" r="468.19" gradientUnits="userSpaceOnUse"><stop id="stop14208" offset="0" stop-color="#fff" stop-opacity=".1" style="stop-color:#bababa;stop-opacity:1"/><stop id="stop14210" offset="1" stop-color="#fff" stop-opacity="0" style="stop-color:#f3f3f3;stop-opacity:1"/></radialGradient><radialGradient id="radialGradient14220" cx="29.72" cy="87.35" r="468.19" gradientUnits="userSpaceOnUse"><stop id="stop14216" offset="0" stop-color="#fff" stop-opacity=".1" style="stop-color:#bababa;stop-opacity:1"/><stop id="stop14218" offset="1" stop-color="#fff" stop-opacity="0" style="stop-color:#f3f3f3;stop-opacity:1"/></radialGradient><radialGradient id="radialGradient14228" cx="29.72" cy="87.35" r="468.19" gradientUnits="userSpaceOnUse"><stop id="stop14224" offset="0" stop-color="#fff" stop-opacity=".1" style="stop-color:#bababa;stop-opacity:1"/><stop id="stop14226" offset="1" stop-color="#fff" stop-opacity="0" style="stop-color:#f3f3f3;stop-opacity:1"/></radialGradient><radialGradient id="radialGradient14236" cx="29.72" cy="87.35" r="468.19" gradientUnits="userSpaceOnUse"><stop id="stop14232" offset="0" stop-color="#fff" stop-opacity=".1" style="stop-color:#bababa;stop-opacity:1"/><stop id="stop14234" offset="1" stop-color="#fff" stop-opacity="0" style="stop-color:#f3f3f3;stop-opacity:1"/></radialGradient><radialGradient id="radialGradient14244" cx="29.72" cy="87.35" r="468.19" gradientUnits="userSpaceOnUse"><stop id="stop14240" offset="0" stop-color="#fff" stop-opacity=".1" style="stop-color:#bababa;stop-opacity:1"/><stop id="stop14242" offset="1" stop-color="#fff" stop-opacity="0" style="stop-color:#f3f3f3;stop-opacity:1"/></radialGradient><radialGradient id="radialGradient14252" cx="29.72" cy="87.35" r="468.19" gradientUnits="userSpaceOnUse"><stop id="stop14248" offset="0" stop-color="#fff" stop-opacity=".1" style="stop-color:#bababa;stop-opacity:1"/><stop id="stop14250" offset="1" stop-color="#fff" stop-opacity="0" style="stop-color:#f3f3f3;stop-opacity:1"/></radialGradient><radialGradient id="radialGradient14260" cx="29.72" cy="87.35" r="468.19" gradientUnits="userSpaceOnUse"><stop id="stop14256" offset="0" stop-color="#fff" stop-opacity=".1" style="stop-color:#bababa;stop-opacity:1"/><stop id="stop14258" offset="1" stop-color="#fff" stop-opacity="0" style="stop-color:#f3f3f3;stop-opacity:1"/></radialGradient><radialGradient id="radialGradient14268" cx="29.72" cy="87.35" r="468.19" gradientUnits="userSpaceOnUse"><stop id="stop14264" offset="0" stop-color="#fff" stop-opacity=".1" style="stop-color:#bababa;stop-opacity:1"/><stop id="stop14266" offset="1" stop-color="#fff" stop-opacity="0" style="stop-color:#f3f3f3;stop-opacity:1"/></radialGradient><radialGradient id="radialGradient14275" cx="29.72" cy="87.35" r="468.19" gradientUnits="userSpaceOnUse"><stop id="stop14271" offset="0" stop-color="#fff" stop-opacity=".1"/><stop id="stop14273" offset="1" stop-color="#fff" stop-opacity="0"/></radialGradient><radialGradient id="radialGradient14292" cx="260.904" cy="211.018" r="2.113" fx="260.904" fy="211.018" gradientUnits="userSpaceOnUse" xlink:href="#linearGradient2250"/><radialGradient id="radialGradient14300" cx="260.904" cy="211.018" r="2.113" fx="260.904" fy="211.018" gradientUnits="userSpaceOnUse" xlink:href="#linearGradient2250"/><radialGradient id="radialGradient14308" cx="260.904" cy="211.018" r="2.113" fx="260.904" fy="211.018" gradientUnits="userSpaceOnUse" xlink:href="#linearGradient2250"/><radialGradient id="radialGradient14316" cx="260.904" cy="211.018" r="2.113" fx="260.904" fy="211.018" gradientUnits="userSpaceOnUse" xlink:href="#linearGradient2250"/><radialGradient id="radialGradient14324" cx="260.904" cy="211.018" r="2.113" fx="260.904" fy="211.018" gradientUnits="userSpaceOnUse" xlink:href="#linearGradient2250"/><radialGradient id="radialGradient14332" cx="260.904" cy="211.018" r="2.113" fx="260.904" fy="211.018" gradientUnits="userSpaceOnUse" xlink:href="#linearGradient2250"/><radialGradient id="radialGradient14340" cx="260.904" cy="211.018" r="2.113" fx="260.904" fy="211.018" gradientUnits="userSpaceOnUse" xlink:href="#linearGradient2250"/><radialGradient id="radialGradient14348" cx="260.904" cy="211.018" r="2.113" fx="260.904" fy="211.018" gradientUnits="userSpaceOnUse" xlink:href="#linearGradient2250"/><radialGradient id="radialGradient14356" cx="260.904" cy="211.018" r="2.113" fx="260.904" fy="211.018" gradientUnits="userSpaceOnUse" xlink:href="#linearGradient2250"/><radialGradient id="radialGradient14364" cx="260.904" cy="211.018" r="2.113" fx="260.904" fy="211.018" gradientUnits="userSpaceOnUse" xlink:href="#linearGradient2250"/><radialGradient id="radialGradient14372" cx="260.904" cy="211.018" r="2.113" fx="260.904" fy="211.018" gradientUnits="userSpaceOnUse" xlink:href="#linearGradient2250"/><radialGradient id="radialGradient14380" cx="260.904" cy="211.018" r="2.113" fx="260.904" fy="211.018" gradientUnits="userSpaceOnUse" xlink:href="#linearGradient2250"/><radialGradient id="radialGradient14388" cx="260.904" cy="211.018" r="2.113" fx="260.904" fy="211.018" gradientUnits="userSpaceOnUse" xlink:href="#linearGradient2250"/><radialGradient id="radialGradient14396" cx="260.904" cy="211.018" r="2.113" fx="260.904" fy="211.018" gradientUnits="userSpaceOnUse" xlink:href="#linearGradient2250"/><radialGradient id="radialGradient14404" cx="260.904" cy="211.018" r="2.113" fx="260.904" fy="211.018" gradientUnits="userSpaceOnUse" xlink:href="#linearGradient2250"/><radialGradient id="radialGradient14412" cx="260.904" cy="211.018" r="2.113" fx="260.904" fy="211.018" gradientUnits="userSpaceOnUse" xlink:href="#linearGradient2250"/></defs><radialGradient id="b" cx="269.5" cy="234.19" r="167.93" gradientTransform="matrix(1.1294677,0,0,1.1294677,-33.56506,-32.250686)" gradientUnits="userSpaceOnUse"><stop id="stop836" offset="0" stop-color="#231f20" stop-opacity=".1"/><stop id="stop838" offset="1" stop-color="#231f20" stop-opacity="0"/></radialGradient><radialGradient id="c" cx="261.354" cy="239.308" r="37" fx="261.354" fy="239.308" gradientUnits="userSpaceOnUse"><stop id="stop841" offset=".4" stop-color="#231f20" stop-opacity="0"/><stop id="stop843" offset="1" stop-color="#231f20" stop-opacity=".04"/></radialGradient><radialGradient id="d" cx="29.72" cy="87.35" r="468.19" gradientUnits="userSpaceOnUse"><stop id="stop846" offset="0" stop-color="#fff" stop-opacity=".1"/><stop id="stop848" offset="1" stop-color="#fff" stop-opacity="0"/></radialGradient><use id="use889" fill="url(#d)" xlink:href="#a"/><use id="use851" stroke="#fff" stroke-miterlimit="10" stroke-width="30" xlink:href="#a"/><g id="g857" fill="#424242"><path id="path853" d="M213.9 159.4V458h95.9V159.4zm93.5 296.1h-90.9V161.9h90.9z"/><path id="path855" d="M26.8 84.8l43.1 74.6h144V458h96V159.4h143.6l43.1-74.6z"/></g><path id="path859" d="M495.1 87.4l1.5-2.6H26.8l1.6 2.6z" opacity=".2"/><path id="path861" fill="#afafaf" d="M109.2 159.4H69.9l12.3 21.3h17.7c2.7-7.4 5.7-14.5 9.3-21.3zm304 0c3.5 6.8 6.6 14 9.2 21.3h18.8l12.3-21.3z"/><circle id="circle863" cx="261.2" cy="237.7" r="171" fill="#4285f4"/><circle style="fill:#396cbc;fill-opacity:1;stroke-width:3.85491" id="circle2283" cx="-167.721" cy="310.8" r="142.633" transform="rotate(-76.05)"/><circle style="fill:#333;fill-opacity:1;stroke-width:3.61534" id="circle2360" cx="-167.721" cy="310.8" r="133.769" transform="rotate(-76.05)"/><g style="fill:#878a8c;fill-opacity:1" id="g1622" transform="matrix(1.1371615,0.08929849,-0.08929849,1.1371615,-6.8420387,-55.008069)"><use style="fill:#878a8c;fill-opacity:1" id="use1511" width="100%" height="100%" x="0" y="0" xlink:href="#path953"/><use style="fill:#878a8c;fill-opacity:1" id="use1513" width="100%" height="100%" x="0" y="0" transform="rotate(20,254.63025,237.86552)" xlink:href="#path953"/><use style="fill:#878a8c;fill-opacity:1" id="use1515" width="100%" height="100%" x="0" y="0" transform="rotate(40,254.62067,237.81121)" xlink:href="#path953"/><use style="fill:#878a8c;fill-opacity:1" id="use1517" width="100%" height="100%" x="0" y="0" transform="rotate(60,254.60445,237.75691)" xlink:href="#path953"/><use style="fill:#878a8c;fill-opacity:1" id="use1519" width="100%" height="100%" x="0" y="0" transform="rotate(80,254.58114,237.7026)" xlink:href="#path953"/><use style="fill:#878a8c;fill-opacity:1" id="use1521" width="100%" height="100%" x="0" y="0" transform="rotate(100,254.55011,237.6483)" xlink:href="#path953"/><use style="fill:#878a8c;fill-opacity:1" id="use1523" width="100%" height="100%" x="0" y="0" transform="rotate(120,254.51039,237.59399)" xlink:href="#path953"/><use style="fill:#878a8c;fill-opacity:1" id="use1525" width="100%" height="100%" x="0" y="0" transform="rotate(140,254.46063,237.53968)" xlink:href="#path953"/><use style="fill:#878a8c;fill-opacity:1" id="use1527" width="100%" height="100%" x="0" y="0" transform="rotate(160,254.39887,237.48538)" xlink:href="#path953"/><use style="fill:#878a8c;fill-opacity:1" id="use1529" width="100%" height="100%" x="0" y="0" transform="rotate(180,254.32227,237.43107)" xlink:href="#path953"/><use style="fill:#878a8c;fill-opacity:1" id="use1531" width="100%" height="100%" x="0" y="0" transform="rotate(-160,254.22651,237.37677)" xlink:href="#path953"/><use style="fill:#878a8c;fill-opacity:1" id="use1533" width="100%" height="100%" x="0" y="0" transform="rotate(-140,254.10485,237.32246)" xlink:href="#path953"/><use style="fill:#878a8c;fill-opacity:1" id="use1535" width="100%" height="100%" x="0" y="0" transform="rotate(-120,253.94603,237.26816)" xlink:href="#path953"/><use style="fill:#878a8c;fill-opacity:1" id="use1537" width="100%" height="100%" x="0" y="0" transform="rotate(-100,253.72989,237.21385)" xlink:href="#path953"/><use style="fill:#878a8c;fill-opacity:1" id="use1539" width="100%" height="100%" x="0" y="0" transform="rotate(-80,253.41621,237.15955)" xlink:href="#path953"/><use style="fill:#878a8c;fill-opacity:1" id="use1541" width="100%" height="100%" x="0" y="0" transform="rotate(-60,252.91138,237.10524)" xlink:href="#path953"/><path id="path953" d="m 262.76225,345.01144 c -9.40372,-82.51831 -4.8748,-78.74109 -6.87853,-105.28397 -18.25465,8.58955 -18.86095,37.73584 -6.74708,107.48026 8.04673,0.48561 11.91833,-0.135 13.62561,-2.19629 z" style="fill:#878a8c;fill-opacity:1;stroke:none;stroke-width:.974958px;stroke-linecap:butt;stroke-linejoin:miter;stroke-opacity:1"/><use style="fill:#878a8c;fill-opacity:1" id="use1543" width="100%" height="100%" x="0" y="0" transform="rotate(-40,251.93503,237.05094)" xlink:href="#path953"/><use style="fill:#878a8c;fill-opacity:1" id="use1545" width="100%" height="100%" x="0" y="0" transform="rotate(-20,249.0866,236.99663)" xlink:href="#path953"/></g><g id="g1622-2-6" transform="matrix(1.1221353,-0.2786374,0.2786374,1.1221353,-90.18985,42.255777)" style="fill:#ececec"><use id="use1511-9-9" width="100%" height="100%" x="0" y="0" xlink:href="#path953-0-3" style="fill:#ececec"/><use id="use1513-7-5" width="100%" height="100%" x="0" y="0" transform="rotate(20,254.63025,237.86552)" xlink:href="#path953-0-3" style="fill:#ececec"/><use id="use1515-1-8" width="100%" height="100%" x="0" y="0" transform="rotate(40,254.62067,237.81121)" xlink:href="#path953-0-3" style="fill:#ececec"/><use id="use1517-3-5" width="100%" height="100%" x="0" y="0" transform="rotate(60,254.60445,237.75691)" xlink:href="#path953-0-3" style="fill:#ececec"/><use id="use1519-4-8" width="100%" height="100%" x="0" y="0" transform="rotate(80,254.58114,237.7026)" xlink:href="#path953-0-3" style="fill:#ececec"/><use id="use1521-1-3" width="100%" height="100%" x="0" y="0" transform="rotate(100,254.55011,237.6483)" xlink:href="#path953-0-3" style="fill:#ececec"/><use id="use1523-0-7" width="100%" height="100%" x="0" y="0" transform="rotate(120,254.51039,237.59399)" xlink:href="#path953-0-3" style="fill:#ececec"/><use id="use1525-4-5" width="100%" height="100%" x="0" y="0" transform="rotate(140,254.46063,237.53968)" xlink:href="#path953-0-3" style="fill:#ececec"/><use id="use1527-4-4" width="100%" height="100%" x="0" y="0" transform="rotate(160,254.39887,237.48538)" xlink:href="#path953-0-3" style="fill:#ececec"/><use id="use1529-8-4" width="100%" height="100%" x="0" y="0" transform="rotate(180,254.32227,237.43107)" xlink:href="#path953-0-3" style="fill:#ececec"/><use id="use1531-2-5" width="100%" height="100%" x="0" y="0" transform="rotate(-160,254.22651,237.37677)" xlink:href="#path953-0-3" style="fill:#ececec"/><use id="use1533-9-0" width="100%" height="100%" x="0" y="0" transform="rotate(-140,254.10485,237.32246)" xlink:href="#path953-0-3" style="fill:#ececec"/><use id="use1535-1-3" width="100%" height="100%" x="0" y="0" transform="rotate(-120,253.94603,237.26816)" xlink:href="#path953-0-3" style="fill:#ececec"/><use id="use1537-2-9" width="100%" height="100%" x="0" y="0" transform="rotate(-100,253.72989,237.21385)" xlink:href="#path953-0-3" style="fill:#ececec"/><use id="use1539-6-8" width="100%" height="100%" x="0" y="0" transform="rotate(-80,253.41621,237.15955)" xlink:href="#path953-0-3" style="fill:#ececec"/><use id="use1541-0-9" width="100%" height="100%" x="0" y="0" transform="rotate(-60,252.91138,237.10524)" xlink:href="#path953-0-3" style="fill:#ececec"/><use id="use1543-3-9" width="100%" height="100%" x="0" y="0" transform="rotate(-40,251.93503,237.05094)" xlink:href="#path953-0-3" style="fill:#ececec"/><use id="use1545-9-5" width="100%" height="100%" x="0" y="0" transform="rotate(-20,249.0866,236.99663)" xlink:href="#path953-0-3" style="fill:#ececec"/><path id="path953-0-3" d="m 254.94947,348.58623 c 0.0132,-0.0161 0.73999,0.47134 0.8776,-0.58838 -0.441,-11.52852 -0.90202,-27.97989 -1.1635,-44.673 -0.44473,-28.39232 -0.31219,-57.48401 1.47797,-64.24278 -4.47316,0.99874 -11.22132,35.12427 -16.17887,64.15645 -3.35663,22.03042 -6.41766,40.60351 -6.41766,40.60351 1.25224,4.55607 20.22175,1.58645 21.40446,4.7442 z" style="fill:#ececec;fill-opacity:1;stroke:none;stroke-width:.974958px;stroke-linecap:butt;stroke-linejoin:miter;stroke-opacity:1"/></g><path id="path865" fill="#263238" d="M100.9 178.1H80.7l1.5 2.6h17.7c.4-.9.7-1.8 1-2.6zm320.6 0l.9 2.6h18.8l1.5-2.6zM261.2 406.2c-94 0-170.3-75.9-171-169.8v1.2c0 94.4 76.6 171 171 171s171-76.6 171-171v-1.2c-.7 93.9-77 169.8-171 169.8z" opacity=".3"/><path id="path867" d="M261.2 69.2c94 0 170.3 75.9 171 169.8v-1.2c0-94.4-76.6-171-171-171s-171 76.6-171 171v1.2c.7-93.9 77-169.8 171-169.8z" opacity=".2"/><circle style="fill:#396cbc;fill-opacity:1;stroke-width:2.11861" id="circle885" cx="-167.721" cy="310.8" r="78.389" transform="rotate(-76.05)"/><circle id="circle1016" cx="-167.721" cy="310.8" r="71.422" transform="rotate(-76.05)" style="fill:#4285f4;fill-opacity:1;stroke-width:1.93031"/><path style="opacity:.186495;fill:#000;stroke-width:1.33333" id="rect4865" d="m 216.66955,276.33814 69.85031,-88.1275 142.2213,73.16321 c -8.91062,59.5801 -37.99485,97.92295 -91.75582,129.30448 z" transform="rotate(-27.224388,258.97397,234.22597)"/><circle style="fill:#ececec;fill-opacity:1;stroke-width:1.54128" id="circle1840" cx="-162.453" cy="313.585" r="57.028" transform="rotate(-75.083279)"/><circle id="circle1842" cx="-167.721" cy="310.8" r="37.273" transform="rotate(-76.05)" style="fill:#424242;fill-opacity:1;stroke-width:1.00739"/><g id="g1387" transform="matrix(1.9042392,0.96257913,-0.96257913,1.9042392,-5.9942237,-453.85797)" style="fill:#878a8c;fill-opacity:1"><circle style="fill:url(#radialGradient2252);fill-opacity:1" id="path377" cx="260.904" cy="211.018" r="2.113"/><use id="use1340" x="0" y="0" transform="rotate(22.5,257.97543,232.76288)" xlink:href="#path377" style="fill:#878a8c;fill-opacity:1"/><use id="use1342" x="0" y="0" transform="rotate(45,257.97543,232.76288)" xlink:href="#path377" style="fill:#878a8c;fill-opacity:1"/><use id="use1344" x="0" y="0" transform="rotate(67.5,257.97543,232.76288)" xlink:href="#path377" style="fill:#878a8c;fill-opacity:1"/><use id="use1346" x="0" y="0" transform="rotate(90,257.97543,232.76288)" xlink:href="#path377" style="fill:#878a8c;fill-opacity:1"/><use id="use1348" x="0" y="0" transform="rotate(112.5,257.97543,232.76288)" xlink:href="#path377" style="fill:#878a8c;fill-opacity:1"/><use id="use1350" x="0" y="0" transform="rotate(135,257.97543,232.76288)" xlink:href="#path377" style="fill:#878a8c;fill-opacity:1"/><use id="use1352" x="0" y="0" transform="rotate(157.5,257.97543,232.76288)" xlink:href="#path377" style="fill:#878a8c;fill-opacity:1"/><use id="use1354" x="0" y="0" transform="rotate(180,257.97543,232.76288)" xlink:href="#path377" style="fill:#878a8c;fill-opacity:1"/><use id="use1356" x="0" y="0" transform="rotate(-157.5,257.97543,232.76288)" xlink:href="#path377" style="fill:#878a8c;fill-opacity:1"/><use id="use1358" x="0" y="0" transform="rotate(-135,257.97543,232.76288)" xlink:href="#path377" style="fill:#878a8c;fill-opacity:1"/><use id="use1360" x="0" y="0" transform="rotate(-112.5,257.97543,232.76288)" xlink:href="#path377" style="fill:#878a8c;fill-opacity:1"/><use id="use1362" x="0" y="0" transform="rotate(-90,257.97543,232.76288)" xlink:href="#path377" style="fill:#878a8c;fill-opacity:1"/><use id="use1364" x="0" y="0" transform="rotate(-67.5,257.97543,232.76288)" xlink:href="#path377" style="fill:#878a8c;fill-opacity:1"/><use id="use1366" x="0" y="0" transform="rotate(-45,257.97543,232.76288)" xlink:href="#path377" style="fill:#878a8c;fill-opacity:1"/><use id="use1368" x="0" y="0" transform="rotate(-22.5,257.97543,232.76288)" xlink:href="#path377" style="fill:#878a8c;fill-opacity:1"/></g><path id="circle812" d="m 259.1413,180.6913 c 31.47452,-1.14766 57.92003,23.43713 59.06769,54.91165 -0.86284,-26.84054 -26.31876,-54.72661 -57.79329,-53.57896 -31.47453,1.14766 -56.72732,26.44349 -56.18606,57.73499 -1.14765,-31.47452 23.43714,-57.92002 54.91166,-59.06768 z" style="fill:#fff;fill-opacity:1;stroke-width:1.54128"/><path id="path815" d="m 259.85422,275.39449 c 20.57505,0.75024 37.86261,-15.32097 38.61284,-35.89601 -0.56404,17.54579 -17.2047,34.94508 -37.77976,34.19486 -20.57505,-0.75023 -37.08292,-16.45627 -36.7291,-36.91168 -0.75022,20.57504 15.32097,37.8626 35.89602,38.61283 z" style="fill:#fff;fill-opacity:1;stroke-width:1.00754"/><g id="g5160" transform="translate(0.29408399,2.3809518)" style="fill:#fff"><path id="path815-7" d="m 287.24918,201.63906 c 2.48113,0.0905 4.56582,-1.84755 4.65629,-4.32868 -0.068,2.11584 -2.0747,3.50548 -4.55583,3.41502 -2.48113,-0.0905 -4.329,-1.47585 -4.42913,-4.05678 -0.26186,2.70959 1.84754,4.87997 4.32867,4.97044 z" style="fill:#fff;stroke-width:.121499"/><path id="path891" d="m 287.24918,201.63906 c 2.48113,0.0905 4.56582,-1.84755 4.65629,-4.32868 -0.068,2.11584 -2.0747,3.50548 -4.55583,3.41502 -2.48113,-0.0905 -4.329,-1.47585 -4.42913,-4.05678 -0.26186,2.70959 1.84754,4.87997 4.32867,4.97044 z" style="fill:#fff;fill-opacity:1;stroke-width:.121499"/><use id="use1009" x="0" y="0" transform="translate(12.752665,13.150107)" xlink:href="#path891" style="fill:#fff"/><use id="use1011" x="0" y="0" transform="translate(6.7749297,17.08297)" xlink:href="#use1009" style="fill:#fff"/><use id="use1013" x="0" y="0" transform="translate(-7.4274564,34.917637)" xlink:href="#use1011" style="fill:#fff"/><use id="use1015" x="0" y="0" transform="translate(7.1825406,-16.801587)" xlink:href="#use1013" style="fill:#fff"/><use id="use1017" x="0" y="0" transform="translate(-20.448075,47.794894)" xlink:href="#use1011" style="fill:#fff"/><use id="use1019" x="0" y="0" transform="translate(-37.508238,54.352974)" xlink:href="#use1011" style="fill:#fff"/><use id="use1021" x="0" y="0" transform="translate(-55.73311,54.207644)" xlink:href="#use1011" style="fill:#fff"/><use id="use1023" x="0" y="0" transform="translate(-72.570306,47.070208)" xlink:href="#use1011" style="fill:#fff"/><use id="use1025" x="0" y="0" transform="translate(-85.340062,33.941908)" xlink:href="#use1011" style="fill:#fff"/><use id="use1027" x="0" y="0" transform="translate(-92.047276,17.116849)" xlink:href="#use1011" style="fill:#fff"/><use id="use1029" x="0" y="0" transform="translate(-91.848542,-1.2069079)" xlink:href="#use1011" style="fill:#fff"/><use id="use1031" x="0" y="0" transform="translate(-84.605394,-17.835706)" xlink:href="#use1011" style="fill:#fff"/><use id="use1033" x="0" y="0" transform="translate(-71.533111,-30.906752)" xlink:href="#use1011" style="fill:#fff"/><use id="use1035" x="0" y="0" transform="translate(-54.597713,-37.611493)" xlink:href="#use1011" style="fill:#fff"/><use id="use1037" x="0" y="0" transform="translate(-36.31568,-37.458192)" xlink:href="#use1011" style="fill:#fff"/></g></svg>